<svg width="80" height="80" viewBox="0 0 80 80" fill="none" xmlns="http://www.w3.org/2000/svg">
		<rect width="80" height="80" rx="40" fill="#F59475" fill-opacity="0.08"/>
		<g clip-path="url(#clip0_7_176)">
				<path d="M20.7643 39.25C21.1488 29.2149 29.2149 21.1488 39.25 20.7643V39.25H20.7643ZM40.75 39.25V20.7643C50.7851 21.1488 58.8512 29.2149 59.2357 39.25H40.75ZM20.7643 40.75H39.25V59.2357C29.2149 58.8512 21.1488 50.7851 20.7643 40.75ZM40.75 59.2357V40.75H59.2357C58.8512 50.7851 50.7851 58.8512 40.75 59.2357Z" stroke="#F59475" stroke-width="1.5"/>
				<path d="M50.25 40C50.25 45.4211 49.0398 50.2919 47.121 53.7807C45.1873 57.2965 42.6376 59.25 40 59.25C37.3624 59.25 34.8127 57.2965 32.879 53.7807C30.9601 50.2919 29.75 45.4211 29.75 40C29.75 34.5789 30.9601 29.7081 32.879 26.2193C34.8127 22.7035 37.3624 20.75 40 20.75C42.6376 20.75 45.1873 22.7035 47.121 26.2193C49.0398 29.7081 50.25 34.5789 50.25 40Z" stroke="#F59475" stroke-width="1.5"/>
				<path d="M40 30.25C34.5789 30.25 29.7081 29.0398 26.2193 27.121C22.7035 25.1873 20.75 22.6376 20.75 20C20.75 17.3624 22.7035 14.8127 26.2193 12.879C29.7081 10.9601 34.5789 9.75 40 9.75C45.4211 9.75 50.2919 10.9601 53.7807 12.879C57.2965 14.8127 59.25 17.3624 59.25 20C59.25 22.6376 57.2965 25.1873 53.7807 27.121C50.2919 29.0398 45.4211 30.25 40 30.25Z" stroke="#F59475" stroke-width="1.5"/>
				<path d="M40 70.25C34.5789 70.25 29.7081 69.0399 26.2193 67.121C22.7035 65.1873 20.75 62.6376 20.75 60C20.75 57.3624 22.7035 54.8127 26.2193 52.879C29.7081 50.9601 34.5789 49.75 40 49.75C45.4211 49.75 50.2919 50.9601 53.7807 52.879C57.2965 54.8127 59.25 57.3624 59.25 60C59.25 62.6376 57.2965 65.1873 53.7807 67.121C50.2919 69.0399 45.4211 70.25 40 70.25Z" stroke="#F59475" stroke-width="1.5"/>
		</g>
		<defs>
				<clipPath id="clip0_7_176">
						<rect x="20" y="20" width="40" height="40" rx="20" fill="white"/>
				</clipPath>
		</defs>
</svg>
