<svg width="80" height="80" viewBox="0 0 80 80" fill="none" xmlns="http://www.w3.org/2000/svg">
<rect width="80" height="80" rx="40" fill="#F59475" fill-opacity="0.08"/>
<path d="M34 39.1429L39.1429 46L46 34" stroke="#F59475" stroke-width="1.5" stroke-linecap="round" stroke-linejoin="round"/>
<path d="M31.5981 25.5997L30.8971 25.3331L31.5981 25.5997L32.6704 22.7801C32.7215 22.6457 32.8753 22.582 33.0065 22.6409L35.7585 23.8764C36.4384 24.1817 37.2371 24.0228 37.7484 23.4806L39.8181 21.286C39.9168 21.1814 40.0832 21.1814 40.1819 21.286L42.2516 23.4806C42.7629 24.0228 43.5616 24.1817 44.2415 23.8764L46.9935 22.6409C47.1247 22.582 47.2785 22.6457 47.3296 22.7801L48.4019 25.5997C48.6668 26.2963 49.3439 26.7487 50.0888 26.7269L53.1042 26.6386C53.248 26.6344 53.3656 26.752 53.3614 26.8958L53.2731 29.9112C53.2513 30.6561 53.7037 31.3332 54.4003 31.5981L57.2199 32.6704C57.3543 32.7215 57.418 32.8753 57.3591 33.0065L56.1236 35.7585C55.8183 36.4384 55.9772 37.2371 56.5194 37.7484L58.714 39.8181C58.8187 39.9168 58.8186 40.0832 58.714 40.1819L56.5194 42.2516C55.9772 42.7629 55.8183 43.5616 56.1236 44.2415L57.3591 46.9935C57.418 47.1247 57.3543 47.2785 57.2199 47.3296L54.4003 48.4019C53.7037 48.6668 53.2513 49.3439 53.2731 50.0888L53.3614 53.1042C53.3656 53.248 53.248 53.3656 53.1042 53.3614L50.0888 53.2731C49.3439 53.2513 48.6668 53.7037 48.4019 54.4003L47.3296 57.2199C47.2785 57.3543 47.1247 57.418 46.9935 57.3591L44.2415 56.1236C43.5616 55.8183 42.7629 55.9772 42.2516 56.5194L40.1819 58.714C40.0832 58.8187 39.9168 58.8186 39.8181 58.714L37.7484 56.5194C37.2371 55.9772 36.4384 55.8183 35.7585 56.1236L33.0065 57.3591C32.8753 57.418 32.7215 57.3543 32.6704 57.2199L31.5981 54.4003C31.3332 53.7037 30.6561 53.2513 29.9112 53.2731L26.8958 53.3614C26.752 53.3656 26.6344 53.248 26.6386 53.1042L26.7269 50.0888C26.7487 49.3439 26.2963 48.6668 25.5997 48.4019L22.7801 47.3296C22.6457 47.2785 22.582 47.1247 22.6409 46.9935L23.8764 44.2415C24.1817 43.5616 24.0228 42.7629 23.4806 42.2516L21.286 40.1819C21.1814 40.0832 21.1814 39.9168 21.286 39.8181L23.4806 37.7484C24.0228 37.2371 24.1817 36.4384 23.8764 35.7585L22.6409 33.0065C22.582 32.8753 22.6457 32.7215 22.7801 32.6704L25.5997 31.5981C26.2963 31.3332 26.7487 30.6561 26.7269 29.9112L26.6386 26.8958C26.6344 26.752 26.752 26.6344 26.8958 26.6386L29.9112 26.7269C30.6561 26.7487 31.3332 26.2963 31.5981 25.5997Z" stroke="#F59475" stroke-width="1.5" stroke-linejoin="round"/>
</svg>
