<svg width="1920" height="855" viewBox="0 0 1920 855" fill="none" xmlns="http://www.w3.org/2000/svg">
<path d="M-102.37 297.86C-79.6998 225.191 -27.1888 201.067 40.3252 187.762C98.0891 176.372 163.852 177.439 211.424 143.709C258.847 110.089 285.702 62.649 343.208 52.252C420.306 38.3219 468.062 91.1716 478.033 151.253C491.875 234.558 430.609 292.174 358.543 303.509C298.899 312.912 235.44 321.561 192.347 371.172C152.664 416.864 138.933 500.334 72.3958 517.632C-3.06216 537.266 -144.32 432.248 -102.37 297.86Z" fill="#FAFAFB"/>
<path d="M-140 59.4268C-140 58.3509 -139.981 57.275 -139.944 56.2176C-139.196 34.4207 -130.558 16.4823 -116.254 7.00299C-95.2751 -6.87282 -60.834 -2.16097 -31.1794 39.6891C-21.3258 53.602 -12.7435 67.181 -4.46042 80.2962C23.1561 123.983 47.0143 161.715 102.509 188.52C120.87 197.387 143.27 204.436 166.96 211.894C230.401 231.854 302.313 254.486 324.563 321.694C346.177 386.9 299.826 473.605 247.641 526.548C207.627 567.137 167.297 586.411 139.755 578.1C121.992 572.739 110.437 556.47 105.426 529.72C100.583 503.879 102.509 479.43 104.379 455.778C107.632 414.651 110.699 375.788 77.5663 335.96C53.7268 307.281 24.4088 281.106 -3.93689 255.784C-43.4825 220.483 -84.3557 183.975 -113.075 138.879C-130.745 111.164 -140 83.7837 -140 59.4268ZM329.181 357.108C329.181 344.938 327.498 333.122 323.796 321.936C301.677 255.117 229.99 232.559 166.736 212.654C143.008 205.178 120.59 198.129 102.172 189.244C46.4721 162.345 22.5577 124.521 -5.13354 80.7229C-13.4166 67.6076 -21.9989 54.0472 -31.8339 40.1528C-61.1892 -1.23344 -95.1443 -5.98239 -115.786 7.68937C-143.721 26.1657 -151.518 77.0128 -112.384 138.434C-83.7199 183.419 -42.8842 219.889 -3.39468 255.154C24.9884 280.494 54.3251 306.687 78.202 335.422C111.54 375.528 108.455 414.521 105.202 455.834C103.332 479.43 101.406 503.842 106.23 529.553C111.185 555.969 122.534 572.034 139.979 577.302C166.81 585.391 207.833 565.727 247.023 525.955C290.103 482.287 329.181 415.597 329.181 357.108Z" fill="#0067BB"/>
<path d="M2185.69 585.596C2158.02 497.466 2093.94 468.209 2011.55 452.074C1941.06 438.259 1860.81 439.554 1802.75 398.647C1744.88 357.874 1712.11 300.34 1641.93 287.731C1547.85 270.837 1489.57 334.932 1477.4 407.797C1460.51 508.826 1535.27 578.7 1623.22 592.447C1696 603.851 1773.45 614.34 1826.03 674.507C1874.46 729.92 1891.22 831.15 1972.42 852.128C2064.5 875.94 2236.88 748.577 2185.69 585.596Z" fill="#FAFAFB"/>
<path fill-rule="evenodd" clip-rule="evenodd" d="M2061.42 270.668C2133.52 286.898 2174.85 341.295 2190.97 399.111C2199.03 428.022 2200.76 457.751 2196.89 483.921C2193.02 510.106 2183.54 532.63 2169.27 547.236C2144.05 573.059 2110.76 578.214 2075.68 578.378C2064.69 578.43 2053.58 577.994 2042.51 577.559C2035.89 577.298 2029.28 577.039 2022.71 576.884C2005.22 576.472 1988.11 576.811 1972.28 579.933C1905.66 593.072 1864.33 644.668 1825.28 693.426C1824.05 694.958 1822.83 696.488 1821.6 698.013C1773.3 758.28 1688.81 783.943 1620.56 727.357L1619.84 728.233C1688.71 785.336 1773.9 759.331 1822.48 698.727C1823.68 697.235 1824.87 695.741 1826.07 694.244C1865.2 645.401 1906.29 594.106 1972.49 581.047C1994.07 576.793 2018.1 577.736 2042.43 578.692C2088.94 580.518 2136.52 582.387 2170.07 548.032C2228.04 488.706 2206.85 302.245 2061.67 269.56C1983.17 251.873 1933.26 287.595 1885.3 342.943C1874.36 355.563 1863.92 369.18 1853.45 382.858C1824.61 420.5 1795.42 458.608 1754.28 477.712C1735.56 486.411 1716.64 492.151 1698.25 497.729C1661.75 508.803 1627.35 519.238 1600.75 550.92C1547.13 614.797 1570.16 687.06 1619.84 728.233L1620.56 727.357C1595.89 706.915 1577.88 678.787 1572.67 647.901C1567.46 617.048 1575.01 583.348 1601.61 551.653C1621.42 528.059 1645.61 516.335 1671.92 507.263C1680.55 504.287 1689.44 501.591 1698.47 498.849C1716.91 493.256 1735.96 487.473 1754.76 478.743C1783.02 465.616 1805.64 443.612 1826.29 419.05C1835.93 407.582 1845.16 395.534 1854.34 383.557C1854.99 382.707 1855.64 381.857 1856.29 381.008C1866.12 368.186 1875.91 355.498 1886.15 343.689C1910.09 316.058 1934.44 293.426 1962.52 279.887C1990.56 266.366 2022.41 261.877 2061.42 270.668Z" fill="#0067BB"/>
</svg>
