<svg width="125" height="40" viewBox="0 0 125 40" fill="none" xmlns="http://www.w3.org/2000/svg">
<path d="M31.8939 36.7317H36.4906V34.4799H37.4692V39.8456H36.4906V37.6015H31.8939V39.8456H30.9153V34.4799H31.8939V36.7317Z" fill="white"/>
<path d="M41.9526 40C40.8067 40 39.944 39.7478 39.3646 39.2434C38.7851 38.739 38.4941 38.0441 38.4941 37.1589C38.4941 36.2736 38.7851 35.5813 39.3646 35.0795C39.944 34.5776 40.8092 34.328 41.9526 34.328C43.096 34.328 43.9536 34.5776 44.533 35.0795C45.1124 35.5813 45.4034 36.2736 45.4034 37.1589C45.4034 38.0441 45.1124 38.739 44.533 39.2434C43.9536 39.7478 43.0909 40 41.9526 40ZM41.9526 39.1302C43.557 39.1302 44.3579 38.4739 44.3579 37.1614C44.3579 35.8489 43.557 35.2004 41.9526 35.2004C40.3483 35.2004 39.5474 35.8541 39.5474 37.1614C39.5474 38.4688 40.3483 39.1302 41.9526 39.1302Z" fill="white"/>
<path d="M47.8344 34.4824L52.1427 38.8857V34.4824H53.1212V39.8482H51.7229L47.4146 35.4449V39.8482H46.436V34.4824H47.8344Z" fill="white"/>
<path d="M54.141 37.1666C54.141 36.2916 54.4449 35.5993 55.0526 35.0898C55.6604 34.5802 56.505 34.3254 57.584 34.3254C58.5523 34.3254 59.3146 34.521 59.876 34.9096C60.4348 35.2982 60.7567 35.7949 60.8391 36.3945H59.7858C59.7086 36.0188 59.4845 35.7254 59.1111 35.5118C58.7377 35.2982 58.2278 35.1953 57.5866 35.1953C57.19 35.1953 56.8398 35.2442 56.5359 35.3394C56.2321 35.4372 55.9977 35.5556 55.8329 35.6945C55.6681 35.8335 55.5342 36.0008 55.4312 36.1912C55.3282 36.3817 55.2638 36.5541 55.2355 36.7059C55.2071 36.8578 55.1943 37.0148 55.1943 37.1717C55.1943 37.3287 55.2097 37.478 55.2432 37.6324C55.2767 37.7868 55.3488 37.9592 55.4569 38.1522C55.5651 38.3427 55.7067 38.51 55.8818 38.6489C56.0544 38.7879 56.2964 38.9063 56.608 39.0041C56.9196 39.1019 57.275 39.1482 57.6768 39.1482C58.1403 39.1482 58.5291 39.1173 58.8459 39.053C59.1601 38.9886 59.4948 38.8805 59.8451 38.7287V37.8589H57.5145V37.0508H60.8365V39.1508C60.2648 39.4622 59.7395 39.6809 59.2579 39.807C58.7764 39.9331 58.2459 39.9974 57.6664 39.9974C56.5771 39.9974 55.717 39.7427 55.0861 39.2331C54.4552 38.7236 54.1384 38.0339 54.1384 37.164L54.141 37.1666Z" fill="white"/>
<path d="M70.0815 34.4824H71.6318L68.5389 36.9015L71.6318 39.8482H70.2489L67.7818 37.4986L66.1105 38.8033V39.8482H65.132V34.4824H66.1105V37.5886L70.0815 34.4824Z" fill="white"/>
<path d="M75.2653 40C74.1193 40 73.2566 39.7478 72.6772 39.2434C72.0978 38.739 71.8068 38.0441 71.8068 37.1589C71.8068 36.2736 72.0978 35.5813 72.6772 35.0795C73.2566 34.5776 74.1219 34.328 75.2653 34.328C76.4086 34.328 77.2662 34.5776 77.8456 35.0795C78.425 35.5813 78.716 36.2736 78.716 37.1589C78.716 38.0441 78.425 38.739 77.8456 39.2434C77.2662 39.7478 76.4035 40 75.2653 40ZM75.2653 39.1302C76.8696 39.1302 77.6705 38.4739 77.6705 37.1614C77.6705 35.8489 76.8696 35.2004 75.2653 35.2004C73.6609 35.2004 72.86 35.8541 72.86 37.1614C72.86 38.4688 73.6609 39.1302 75.2653 39.1302Z" fill="white"/>
<path d="M81.1471 34.4824L85.4554 38.8857V34.4824H86.434V39.8482H85.0357L80.7274 35.4449V39.8482H79.7488V34.4824H81.1471Z" fill="white"/>
<path d="M87.4563 37.1666C87.4563 36.2916 87.7602 35.5993 88.3679 35.0898C88.9757 34.5802 89.8203 34.3254 90.8993 34.3254C91.8676 34.3254 92.6299 34.521 93.1913 34.9096C93.7501 35.2982 94.072 35.7949 94.1544 36.3945H93.1011C93.0239 36.0188 92.7998 35.7254 92.4264 35.5118C92.053 35.2982 91.5431 35.1953 90.9019 35.1953C90.5053 35.1953 90.1551 35.2442 89.8512 35.3394C89.5474 35.4372 89.313 35.5556 89.1482 35.6945C88.9834 35.8335 88.8495 36.0008 88.7465 36.1912C88.6435 36.3817 88.5791 36.5541 88.5508 36.7059C88.5224 36.8578 88.5096 37.0148 88.5096 37.1717C88.5096 37.3287 88.525 37.478 88.5585 37.6324C88.592 37.7868 88.6641 37.9592 88.7722 38.1522C88.8804 38.3427 89.022 38.51 89.1971 38.6489C89.3697 38.7879 89.6117 38.9063 89.9233 39.0041C90.2349 39.1019 90.5903 39.1482 90.992 39.1482C91.4556 39.1482 91.8444 39.1173 92.1612 39.053C92.4754 38.9886 92.8101 38.8805 93.1604 38.7287V37.8589H90.8298V37.0508H94.1518V39.1508C93.5801 39.4622 93.0548 39.6809 92.5732 39.807C92.0917 39.9331 91.5612 39.9974 90.9817 39.9974C89.8924 39.9974 89.0323 39.7427 88.4014 39.2331C87.7705 38.7236 87.4537 38.0339 87.4537 37.164L87.4563 37.1666Z" fill="white"/>
<path d="M17.7431 11.6914C19.8264 11.0197 21.1733 9.13849 21.1733 6.81976C21.1733 3.0573 18.2813 0.571289 13.1052 0.571289H0V23.7509H13.2391C18.853 23.7509 22.1827 21.0976 22.1827 16.8307C22.1827 14.4116 20.4342 12.3965 17.7457 11.6914H17.7431ZM6.38649 5.57418H12.1961C13.6743 5.57418 14.5499 6.21241 14.5499 7.6227C14.5499 8.8657 13.6769 9.60429 12.1961 9.60429H6.38649V5.57161V5.57418ZM12.8683 18.7454H6.38649V14.3112H12.8683C14.5499 14.3112 15.4563 15.2531 15.4563 16.4961C15.4563 17.7391 14.5499 18.748 12.8683 18.748V18.7454Z" fill="white"/>
<path d="M30.9179 0.568726H24.3176V23.7509H30.9179V0.568726Z" fill="white"/>
<path d="M85.2055 0.568726L77.0704 23.7509H83.9256L84.9351 20.4928H93.4101L94.453 23.7509H101.749L93.6109 0.568726H85.2055ZM86.6811 14.9495L87.2862 13.0013C88.0253 10.6826 88.6305 8.83483 89.1018 6.98705H89.3078C89.7456 8.83483 90.2838 10.6826 91.0229 13.0013L91.628 14.9495H86.6811Z" fill="white"/>
<path d="M112.562 0.568726H103.013V23.7509H112.562C120.262 23.7509 125 18.5086 125 12.1598C125 5.81096 120.262 0.568726 112.562 0.568726ZM112.461 17.8704H109.569V6.44919H112.461C116.059 6.44919 117.908 9.0021 117.908 12.1598C117.908 15.3175 116.059 17.8704 112.461 17.8704Z" fill="white"/>
<path d="M62.0391 8.63926C63.2365 7.19295 65.1113 6.22788 66.9216 6.22788C69.0462 6.22788 70.6428 7.06685 72.5845 8.78852L73.03 9.19514L76.4756 4.30547L76.3031 4.11761C73.9159 1.50035 70.496 0 66.9216 0C62.7988 0 58.9488 2.38307 57.1153 4.59886C55.7582 6.23818 54.7435 8.19662 53.6671 10.2683C51.8233 13.8223 50.3657 16.3546 48.2747 17.4638V17.469H48.2695C47.4969 17.8756 46.6394 18.0917 45.6454 18.0917C44.0127 18.0917 42.4779 17.4741 41.3242 16.3546C40.1705 15.2352 39.5344 13.7451 39.5344 12.1598C39.5344 8.88889 42.2745 6.22788 45.6428 6.22788C47.9734 6.22788 49.8558 7.13633 51.2413 8.92749L51.3134 9.02014L54.4706 3.55658C52.122 1.2919 48.9468 0 45.6428 0C38.7387 0 33.1196 5.45583 33.1196 12.1598C33.1196 18.8638 38.7361 24.3196 45.6428 24.3196C53.5538 24.3196 56.9273 17.8164 59.3943 13.0631C60.3137 11.2951 61.1069 9.76131 62.0391 8.63669V8.63926Z" fill="white"/>
<path d="M73.2051 14.651C71.8686 16.733 69.5638 18.1072 66.9474 18.1072C66.9242 18.1072 66.9011 18.1072 66.8753 18.1072C66.8573 18.1072 66.8393 18.1072 66.8212 18.1072C65.6521 18.1072 64.5551 17.8241 63.5559 17.276C62.6494 16.805 61.8537 16.1488 61.2073 15.3587L58.0887 20.7579C60.391 23.0149 63.507 24.2991 66.8212 24.2991C70.5269 24.2991 74.0009 22.7035 76.352 19.9241L77.2276 18.9745L73.2077 14.6561L73.2051 14.651Z" fill="white"/>
</svg>
